<?xml version="1.0" encoding="UTF-8"?>
<svg width="24px" height="24px" viewBox="0 0 24 24" version="1.1" xmlns="http://www.w3.org/2000/svg" xmlns:xlink="http://www.w3.org/1999/xlink">
    <title>Assets/Icons/ic-24/Password hide@3x</title>
    <g id="Assets/Icons/ic-24/Password-hide" stroke="none" stroke-width="1" fill="none" fill-rule="evenodd">
        <path d="M19.6464466,3.64644661 L20.3535534,4.35355339 L4.35355339,20.3535534 L3.64644661,19.6464466 L19.6464466,3.64644661 Z M18.3200323,7.80319028 C19.5396835,8.73640741 20.6793246,9.94078391 21.6916117,11.3934042 L21.9160251,11.7226499 L22.1009252,12 L21.9160251,12.2773501 C19.2490529,16.2778084 15.6379916,18.5 12,18.5 C10.7730262,18.5 9.54911567,18.2472282 8.36345408,17.7587151 L9.13740684,16.9858708 C9.88480203,17.2553241 10.6437736,17.4206417 11.4036909,17.4776106 L11.7018683,17.4943932 L12,17.5 C14.9806137,17.5 17.9894726,15.8151422 20.3845178,12.6998847 L20.6219525,12.3836004 L20.894,12 L20.8551524,11.9421634 C19.8738838,10.538505 18.7741659,9.38982081 17.6051918,8.51560699 L18.3200323,7.80319028 Z M12,5.5 C13.2273183,5.5 14.4515715,5.75291379 15.6375445,6.24169641 L14.8635906,7.01448889 C14.1158732,6.74482303 13.3565645,6.57938362 12.5963091,6.52238938 L12.2981317,6.50560677 L12,6.5 C8.82067874,6.5 5.60922073,8.41699381 3.14484762,11.9421634 L3.105,12 L3.37804755,12.3836004 C4.29937069,13.6403956 5.3180469,14.679268 6.3955534,15.4849502 L5.68193246,16.1983128 C4.46154044,15.2648859 3.32121893,14.0599961 2.30838827,12.6065958 L2.08397485,12.2773501 L1.89907479,12 L2.08397485,11.7226499 C4.75094707,7.72219158 8.36200838,5.5 12,5.5 Z M15.6836362,10.4382431 C15.8873249,10.9180711 16,11.4458772 16,12 C16,14.209139 14.209139,16 12,16 C11.4458772,16 10.9180711,15.8873249 10.4382431,15.6836362 L15.6836362,10.4382431 Z M12,8 C12.5545098,8 13.0826661,8.11283249 13.5627621,8.31679061 L8.31636375,13.5617569 C8.11267507,13.0819289 8,12.5541228 8,12 C8,9.790861 9.790861,8 12,8 Z" id="Shape" fill="#000000" fill-rule="nonzero"></path>
    </g>
</svg>
