<?xml version="1.0" encoding="UTF-8"?>
<svg width="24px" height="24px" viewBox="0 0 24 24" version="1.1" xmlns="http://www.w3.org/2000/svg" xmlns:xlink="http://www.w3.org/1999/xlink">
    <title>Assets/Icons/ic-24/Password view@3x</title>
    <g id="Assets/Icons/ic-24/Password-view" stroke="none" stroke-width="1" fill="none" fill-rule="evenodd">
        <path d="M12,5.5 C15.5369363,5.5 19.0484176,7.60045114 21.6916117,11.3934042 L21.9160251,11.7226499 L22.1009252,12 L21.9160251,12.2773501 C19.2490529,16.2778084 15.6379916,18.5 12,18.5 C8.46306371,18.5 4.95158237,16.3995489 2.30838827,12.6065958 L2.08397485,12.2773501 L1.89907479,12 L2.08397485,11.7226499 C4.75094707,7.72219158 8.36200838,5.5 12,5.5 Z M12,6.5 C8.82067874,6.5 5.60922073,8.41699381 3.14484762,11.9421634 L3.105,12 L3.37804755,12.3836004 C5.65301141,15.4869239 8.52154899,17.2615444 11.4036909,17.4776106 L11.7018683,17.4943932 L12,17.5 C14.9806137,17.5 17.9894726,15.8151422 20.3845178,12.6998847 L20.6219525,12.3836004 L20.894,12 L20.8551524,11.9421634 C18.5448026,8.63731691 15.5778352,6.74590616 12.5963091,6.52238938 L12.2981317,6.50560677 L12,6.5 Z M12,8 C14.209139,8 16,9.790861 16,12 C16,14.209139 14.209139,16 12,16 C9.790861,16 8,14.209139 8,12 C8,9.790861 9.790861,8 12,8 Z" id="Shape" fill="#000000" fill-rule="nonzero"></path>
    </g>
</svg>