<?xml version="1.0" encoding="UTF-8"?>
<svg width="154px" height="32px" viewBox="0 0 154 32" version="1.1" xmlns="http://www.w3.org/2000/svg" xmlns:xlink="http://www.w3.org/1999/xlink">
    <title>Assets/Logo Carrera</title>
    <g id="Assets/Logo-Carrera" stroke="none" stroke-width="1" fill="none" fill-rule="evenodd" opacity="0.64">
        <g id="Logo" fill="#FFFFFF">
            <path d="M150.723002,27.041694 C151.323665,27.041694 151.715044,27.2327414 152.107246,27.5684136 L151.59557,28.3843825 C151.30389,28.1442341 151.070711,28.0005022 150.690868,28.0005022 C150.14129,28.0005022 149.863618,28.4790135 149.799349,29.1092915 C150.021817,28.9512756 150.280539,28.8021872 150.717235,28.8021872 C151.59557,28.8021872 152.272037,29.3289068 152.272037,30.3287813 L152.272037,30.3412797 C152.272037,31.320621 151.544485,32 150.583754,32 C150.008634,32 149.616431,31.821451 149.307448,31.4857789 C148.985282,31.1367155 148.782589,30.6224944 148.782589,29.6708282 L148.782589,29.6565442 C148.782589,28.1790512 149.402203,27.041694 150.723002,27.041694 Z M101.097525,27.0413369 C101.931367,27.0413369 102.430684,27.3430847 102.841837,27.7805298 L102.221399,28.5545397 C101.881106,28.2197604 101.533397,28.014429 101.090934,28.014429 C100.345254,28.014429 99.807212,28.6839878 99.807212,29.5070987 L99.807212,29.5195971 C99.807212,30.3409226 100.332895,31.0274435 101.090934,31.0274435 C101.596018,31.0274435 101.905825,30.8078283 102.253534,30.4659069 L102.873148,31.1435004 C102.417501,31.6711127 101.911592,31.9996429 101.059623,31.9996429 C99.7577747,31.9996429 98.7896279,30.9096012 98.7896279,29.5338811 L98.7896279,29.5195971 C98.7896279,28.1581609 99.7379998,27.0413369 101.097525,27.0413369 Z M132.884464,27.041694 C133.479359,27.041694 133.827068,27.1997099 134.162418,27.5612716 C134.477993,27.9049784 134.686453,28.4245561 134.686453,29.3690803 L134.686453,29.3824715 C134.686453,30.9376334 134.009986,32 132.753455,32 C132.108299,32 131.671603,31.7661008 131.298351,31.4313214 L131.810851,30.6296363 C132.133017,30.9099583 132.404922,31.0402991 132.77735,31.0402991 C133.321984,31.0402991 133.612016,30.595712 133.675461,29.9520429 C133.460408,30.1502323 133.162961,30.2814658 132.77735,30.2814658 C131.817443,30.2814658 131.197829,29.7056452 131.197829,28.7334459 L131.197829,28.7191619 C131.197829,27.7541045 131.886655,27.041694 132.884464,27.041694 Z M143.140723,27.123648 L143.140723,28.0485319 L141.257987,28.0485319 L141.207726,28.8761065 C141.384052,28.8278983 141.542251,28.7948667 141.788614,28.7948667 C142.647998,28.7948667 143.336825,29.2465957 143.336825,30.3286027 L143.336825,30.3411011 C143.336825,31.3552595 142.674365,31.9998215 141.655957,31.9998215 C140.947356,31.9998215 140.429088,31.724856 139.999808,31.2802689 L140.588112,30.5205429 C140.922637,30.8481803 141.252219,31.0401205 141.642774,31.0401205 C142.098421,31.0401205 142.381861,30.8008648 142.381861,30.3768109 L142.381861,30.362527 C142.381861,29.9518643 142.060519,29.7126086 141.599104,29.7126086 C141.321431,29.7126086 141.068477,29.7938484 140.860017,29.8902649 L140.297256,29.4867441 L140.423321,27.123648 L143.140723,27.123648 Z M75.0514087,27.0559779 C75.6965653,27.0559779 76.2469671,27.2747004 76.6951985,27.66483 L76.1901142,28.4593731 C75.7979117,28.1647673 75.4123009,27.9862182 75.0390494,27.9862182 C74.6666218,27.9862182 74.4705206,28.1719092 74.4705206,28.4040229 L74.4705206,28.4174141 C74.4705206,28.7334459 74.6592062,28.8352188 75.4254842,29.0476921 C76.3227709,29.300339 76.8286791,29.650295 76.8286791,30.4850116 L76.8286791,30.4992956 C76.8286791,31.4518545 76.15798,31.9857161 75.2038403,31.9857161 C74.5331412,31.9857161 73.8574982,31.7312837 73.3268714,31.2188481 L73.9019918,30.4725132 C74.299962,30.8278257 74.7168831,31.0536902 75.2227913,31.0536902 C75.6199375,31.0536902 75.8605323,30.8840687 75.8605323,30.602854 L75.8605323,30.5885701 C75.8605323,30.3216393 75.7089246,30.1850493 74.9698372,29.9797179 C74.0783181,29.7324276 73.5031977,29.4654968 73.5031977,28.5138306 L73.5031977,28.5004394 C73.5031977,27.630013 74.1483543,27.0559779 75.0514087,27.0559779 Z M30.6343144,27.1097212 L31.6271799,30.3691333 L32.5417697,27.1231123 L33.5601778,27.1231123 L32.0498687,31.9501848 L31.2028432,31.9501848 L30.20421,28.8166497 L29.2047529,31.9501848 L28.3585513,31.9501848 L26.8474183,27.1231123 L27.890545,27.1231123 L28.8076067,30.3691333 L29.7996482,27.1097212 L30.6343144,27.1097212 Z M83.4237779,27.1241836 L83.4237779,31.9182246 L82.4515112,31.9182246 L82.4515112,27.1241836 L83.4237779,27.1241836 Z M90.1599376,27.1239158 L92.2321839,30.0744382 L92.2321839,27.1239158 L93.1929151,27.1239158 L93.1929151,31.9179567 L92.3648406,31.9179567 L90.2217343,28.8701251 L90.2217343,31.9179567 L89.261827,31.9179567 L89.261827,27.1239158 L90.1599376,27.1239158 Z M125.529514,27.0890987 L125.529514,31.917064 L124.569607,31.917064 L124.569607,28.1577146 L123.797561,28.3630459 L123.596516,27.501547 L124.867055,27.0890987 L125.529514,27.0890987 Z M111.71822,27.1239158 L111.71822,28.0612981 L109.34935,28.0612981 L109.34935,29.035283 L111.433955,29.035283 L111.433955,29.9726653 L109.34935,29.9726653 L109.34935,30.9787889 L111.750354,30.9787889 L111.750354,31.9179567 L108.381203,31.9179567 L108.381203,27.1239158 L111.71822,27.1239158 Z M21.559359,27.1241836 L21.559359,28.0606732 L19.1904891,28.0606732 L19.1904891,29.034658 L21.2759186,29.034658 L21.2759186,29.9720403 L19.1904891,29.9720403 L19.1904891,30.978164 L21.5914932,30.978164 L21.5914932,31.9173318 L18.2231662,31.9173318 L18.2231662,27.1241836 L21.559359,27.1241836 Z M59.7240374,27.1240944 C60.2859745,27.1240944 60.7218466,27.2955014 61.0127026,27.6097477 C61.2590651,27.8766784 61.3925458,28.2543096 61.3925458,28.7051458 L61.3925458,28.7194298 C61.3925458,29.4934397 61.0069349,29.9799858 60.4441738,30.2058503 L61.5252025,31.9172425 L60.387321,31.9172425 L59.438949,30.3835065 L58.674319,30.3835065 L58.674319,31.9172425 L57.7020524,31.9172425 L57.7020524,27.1240944 L59.7240374,27.1240944 Z M3.33710501,27.1241836 L3.33710501,28.0606732 L0.967411102,28.0606732 L0.967411102,29.034658 L3.05284061,29.034658 L3.05284061,29.9720403 L0.967411102,29.9720403 L0.967411102,30.978164 L3.3700632,30.978164 L3.3700632,31.9173318 L8.82074886e-05,31.9173318 L8.82074886e-05,27.1241836 L3.33710501,27.1241836 Z M50.3920081,27.0888309 L52.2871041,31.9176889 L51.2703439,31.9176889 L50.8657821,30.8419311 L48.9945808,30.8419311 L48.590843,31.9176889 L47.5979775,31.9176889 L49.4947214,27.0888309 L50.3920081,27.0888309 Z M42.3466666,27.1241836 L42.3466666,28.0606732 L39.9777966,28.0606732 L39.9777966,29.034658 L42.0632261,29.034658 L42.0632261,29.9720403 L39.9777966,29.9720403 L39.9777966,30.978164 L42.3796248,30.978164 L42.3796248,31.9173318 L39.0112977,31.9173318 L39.0112977,27.1241836 L42.3466666,27.1241836 Z M9.64909288,27.1241836 L10.7054029,29.0480492 L11.7790159,27.1241836 L12.8855872,27.1241836 L11.1849446,30.0059647 L11.1849446,31.9173318 L10.211854,31.9173318 L10.211854,30.0273905 L8.5120353,27.1241836 L9.64909288,27.1241836 Z M150.533493,29.6779701 C150.052303,29.6779701 149.775454,29.965434 149.775454,30.3689548 L149.775454,30.3832387 C149.775454,30.7867595 150.065486,31.0956493 150.546676,31.0956493 C151.026218,31.0956493 151.30389,30.8010434 151.30389,30.3903807 L151.30389,30.3760968 C151.30389,29.972576 151.013034,29.6779701 150.533493,29.6779701 Z M49.9297695,28.3556362 L49.3431137,29.9116908 L50.5180732,29.9116908 L49.9297695,28.3556362 Z M59.6416419,28.0757606 L58.674319,28.0757606 L58.674319,29.4514807 L59.6605929,29.4514807 C60.1335429,29.4514807 60.4062719,29.177408 60.4062719,28.7738872 L60.4062719,28.760496 C60.4062719,28.308767 60.1154159,28.0757606 59.6416419,28.0757606 Z M132.916598,27.945152 C132.437057,27.945152 132.165152,28.2468998 132.165152,28.6718464 L132.165152,28.6843449 C132.165152,29.1092915 132.455184,29.4038974 132.936373,29.4038974 C133.415915,29.4038974 133.694412,29.1021496 133.694412,28.6914868 L133.694412,28.6789884 C133.694412,28.2540418 133.402732,27.945152 132.916598,27.945152 Z M23.6672001,0 L21.6822931,5.69392794 L14.3334405,5.69392794 C11.919253,5.69392794 8.32598632,6.10191243 7.25237326,10.5183222 C6.34107929,14.4133689 7.1988162,16.3309852 12.2958004,16.3309852 L20.7166181,16.3309852 L30.7482673,0 L36.7029884,0 L40.887,16.504 L47.1095371,0 L55.7746517,0.000623921662 C58.6883875,0.00779902077 60.781847,0.0974877596 62.558689,1.218597 C64.7578242,2.67198594 65.4013329,5.2868362 64.6515341,7.72938666 C64.3829248,8.65873425 63.5243639,10.4031581 62.8264743,11.2155561 C60.7352771,13.5982926 58.3219136,13.8902203 57.5177337,13.8902203 C57.3562386,16.2140356 58.5353178,16.5050705 60.8432151,16.5050705 L64.597977,16.5050705 L70.499965,0 L79.1624404,0.000623921662 C82.0756461,0.00779902077 84.169803,0.0974877596 85.946645,1.218597 C88.1474281,2.67198594 88.7917608,5.2868362 88.0394901,7.72938666 C87.7717048,8.65873425 86.9123199,10.4031581 86.2152542,11.2155561 C84.1232331,13.5982926 81.7090456,13.8902203 80.9048658,13.8902203 C80.7433706,16.2140356 81.9249217,16.5050705 84.2319951,16.5050705 L88.2553662,16.5050705 L94.1540584,0 L110.086872,0 L108.048408,5.51984265 L98.8225861,5.51984265 L97.6962399,8.60070583 L105.528754,8.60070583 L103.865189,13.5402642 L96.1397894,13.5402642 L95.0661763,16.5050705 L107.994027,16.5050705 L113.896015,0 L122.560962,0.000623921662 C125.474168,0.00779902077 127.568324,0.0974877596 129.345166,1.218597 C131.544302,2.67198594 132.18781,5.2868362 131.438011,7.72938666 C131.168578,8.65873425 130.310841,10.4031581 129.613776,11.2155561 C127.521754,13.5982926 125.107567,13.8902203 124.301739,13.8902203 C124.141892,16.2140356 125.320971,16.5050705 127.629693,16.5050705 L130.955174,16.5050705 L141.254609,0 L146.833606,0 C150.910534,15.690887 152.541141,21.8213673 152.626832,22.1436483 L146.297212,22.1436483 L145.437827,19.1208135 L136.212829,19.1208135 L134.227098,22.1436483 L126.878246,22.1436483 C119.68924,22.1436483 116.793039,17.1451687 119.314341,9.76305988 L122.049871,9.76305988 C123.497559,9.76305988 124.196273,9.12385443 124.62473,7.72938666 C125.000453,6.50811143 124.838958,5.637685 122.801318,5.637685 L118.456604,5.637685 L112.662554,22.1436483 L83.4805483,22.1436483 C76.291543,22.1436483 73.3945181,17.1451687 75.9158196,9.76305988 L78.6529974,9.76305988 C80.099038,9.76305988 80.7977516,9.12385443 81.2262081,7.72938666 C81.6011075,6.50811143 81.4420843,5.637685 79.4027962,5.637685 L75.0580827,5.637685 L69.2648568,22.1436483 L60.0909444,22.1436483 C52.9027631,22.1436483 50.0065621,17.1451687 52.5278636,9.76305988 L55.2633935,9.76305988 C56.7119059,9.76305988 57.4097956,9.12385443 57.8390761,7.72938666 C58.2139755,6.50811143 58.0524803,5.637685 56.0148402,5.637685 L51.6701267,5.637685 L45.8760768,22.1436483 L36.0586558,22.1436483 L35.2009189,19.1208135 L25.9742734,19.1208135 L23.9885424,22.1436483 L11.1150732,22.1436483 C3.2298261,22.1436483 -1.70566295,19.1208135 0.547029381,9.5889746 C1.94116084,3.65936197 6.44819341,0 14.2271503,0 L23.6672001,0 Z M143.130754,7.61243705 L142.703121,7.61243705 L138.67975,14.6445898 L144.848699,14.6445898 L143.130754,7.61243705 Z M32.8946695,7.61243705 L32.4653891,7.61243705 L28.441194,14.6445898 L34.6109673,14.6445898 L32.8946695,7.61243705 Z" id="Combined-Shape"></path>
        </g>
    </g>
</svg>