<?xml version="1.0" encoding="UTF-8"?>
<svg width="24px" height="17px" viewBox="0 0 24 17" version="1.1" xmlns="http://www.w3.org/2000/svg" xmlns:xlink="http://www.w3.org/1999/xlink">
    <title>1FE7FD0E-461D-4D80-9FDF-EE91CE2D526A-black</title>
    <defs>
        <filter color-interpolation-filters="auto" id="filter-1">
            <feColorMatrix in="SourceGraphic" type="matrix" values="0 0 0 0 1.000000 0 0 0 0 1.000000 0 0 0 0 1.000000 0 0 0 1.000000 0"></feColorMatrix>
        </filter>
    </defs>
    <g id="Desktop" stroke="none" stroke-width="1" fill="none" fill-rule="evenodd" opacity="0.64">
        <g id="Carrera-\-Home-\-Lato-font" transform="translate(-840.000000, -3799.000000)">
            <g id="Footer-Copy-3" transform="translate(0.000000, 3459.000000)">
                <g id="Group-20" transform="translate(0.000000, 192.000000)">
                    <g id="Youtube/Black" transform="translate(672.000000, 111.000000)" filter="url(#filter-1)">
                        <g transform="translate(168.000000, 37.000000)" fill="#000000" id="Youtube">
                            <path d="M9.522,11.634958 L9.52125,4.8438708 L16.00575,8.25112187 L9.522,11.634958 Z M23.76,3.66708135 C23.76,3.66708135 23.52525,2.0015995 22.806,1.26818323 C21.89325,0.305149509 20.87025,0.300617586 20.4015,0.244723864 C17.043,0 12.00525,0 12.00525,0 L11.99475,0 C11.99475,0 6.957,0 3.5985,0.244723864 C3.129,0.300617586 2.10675,0.305149509 1.19325,1.26818323 C0.474,2.0015995 0.24,3.66708135 0.24,3.66708135 C0.24,3.66708135 0,5.62336162 0,7.57888657 L0,9.41280491 C0,11.3690852 0.24,13.3246101 0.24,13.3246101 C0.24,13.3246101 0.474,14.990092 1.19325,15.7235082 C2.10675,16.686542 3.306,16.6563291 3.84,16.7567868 C5.76,16.9425956 12,17 12,17 C12,17 17.043,16.9924468 20.4015,16.7477229 C20.87025,16.6910739 21.89325,16.686542 22.806,15.7235082 C23.52525,14.990092 23.76,13.3246101 23.76,13.3246101 C23.76,13.3246101 24,11.3690852 24,9.41280491 L24,7.57888657 C24,5.62336162 23.76,3.66708135 23.76,3.66708135 L23.76,3.66708135 Z"></path>
                        </g>
                    </g>
                </g>
            </g>
        </g>
    </g>
</svg>